<svg width="1792" height="1792" xmlns="http://www.w3.org/2000/svg">

 <g>
  <title>background</title>
  <rect fill="none" id="canvas_background" height="402" width="582" y="-1" x="-1"/>
 </g>
 <g>
  <title>Layer 1</title>
  <path stroke="null" id="svg_1" fill="#fff" d="m1791.666689,458.907171q21.481057,59.773377 -140.093851,274.583948q-22.415016,29.886688 -60.707336,79.386516q-72.848803,93.395901 -84.056311,122.34863q-15.877303,38.292319 13.075426,75.65068q15.877303,19.613139 75.65068,76.584639l0.933959,0l0.933959,0.933959l0.933959,0.933959l1.867918,1.867918q131.68822,122.34863 178.386171,206.404941q2.801877,4.669795 6.070734,11.674488t6.537713,24.749914t-0.46698,31.754606t-23.348975,25.683873t-55.103581,11.674488l-239.093506,3.735836q-22.415016,4.669795 -52.301704,-4.669795t-48.565868,-20.547098l-18.67918,-11.207508q-28.01877,-19.613139 -65.377131,-59.773377t-63.976192,-72.381823t-56.971499,-54.169622t-52.768684,-14.476365q-2.801877,0.933959 -7.471672,3.268857t-15.877303,13.542406t-20.080119,27.551791t-15.877303,48.565868t-6.070734,72.381823q0,14.009385 -3.268857,25.683873t-7.004693,17.278242l-3.735836,4.669795q-16.811262,17.745221 -49.499827,20.547098l-107.405286,0q-66.31109,3.735836 -136.358015,-15.410324t-122.81561,-49.499827t-96.197778,-61.641295t-65.84411,-53.702643l-23.348975,-22.415016q-9.33959,-9.33959 -25.683873,-28.01877t-66.778069,-84.99027t-98.999655,-141.02781t-114.409978,-197.065351t-121.881651,-254.03685q-5.603754,-14.943344 -5.603754,-25.216893t2.801877,-14.943344l3.735836,-5.603754q14.009385,-17.745221 53.235663,-17.745221l255.904768,-1.867918q11.207508,1.867918 21.481057,6.070734t14.943344,7.938652l4.669795,2.801877q14.943344,10.273549 22.415016,29.886688q18.67918,46.69795 42.962114,96.664757t38.292319,76.117659l14.943344,27.084811q27.084811,56.03754 52.301704,97.131737t45.297012,63.976192t38.759299,35.957422t31.754606,13.075426t25.216893,-4.669795q1.867918,-0.933959 4.669795,-4.669795t11.207508,-20.547098t12.608447,-43.896073t8.872611,-75.65068t0,-116.744876q-1.867918,-37.35836 -8.405631,-68.179008t-13.075426,-42.962114l-5.603754,-11.207508q-23.348975,-31.754606 -79.386516,-40.160237q-12.141467,-1.867918 4.669795,-22.415016q15.877303,-17.745221 35.490442,-28.01877q49.499827,-24.282934 223.216203,-22.415016q76.584639,0.933959 126.084466,12.141467q18.67918,4.669795 31.287627,12.608447t19.14616,22.415016t9.80657,29.886688t3.268857,42.495135t-0.933959,51.367745t-2.334898,65.84411t-1.400939,77.051618q0,10.273549 -0.933959,39.226278t-0.46698,44.830032t3.268857,37.82534t10.740529,36.424401t21.014078,22.881996q7.471672,1.867918 15.877303,3.735836t24.282934,-10.273549t35.490442,-32.221586t48.565868,-62.575254t63.509213,-100.400593q56.03754,-97.131737 99.933614,-210.140777q3.735836,-9.33959 9.33959,-16.344283t10.273549,-9.80657l3.735836,-2.801877l4.669795,-2.334898l12.141467,-2.801877l18.67918,-0.46698l268.980194,-1.867918q36.424401,-4.669795 59.773377,2.334898t28.952729,15.410324l5.603754,9.33959z"/>
 </g>
</svg>