<svg width="1792" height="1792" xmlns="http://www.w3.org/2000/svg"><title>background</title><path fill="none" d="M-1-1h582v402H-1z"/><title>Layer 1</title><path stroke="null" fill="#fff" d="M1791.667 458.907q21.48 59.774-140.094 274.584-22.415 29.887-60.707 79.387-72.85 93.396-84.057 122.348-15.877 38.293 13.076 75.65 15.877 19.614 75.65 76.586h.934l.934.934.934.934 1.868 1.867q131.688 122.349 178.386 206.405 2.802 4.67 6.071 11.675t6.538 24.75-.467 31.754-23.35 25.684-55.103 11.675l-239.093 3.736q-22.415 4.67-52.302-4.67t-48.566-20.547l-18.68-11.208q-28.018-19.613-65.376-59.773t-63.976-72.382-56.972-54.17-52.769-14.476q-2.801.934-7.471 3.269t-15.878 13.542-20.08 27.552-15.877 48.566-6.07 72.382q0 14.01-3.27 25.684t-7.004 17.278l-3.736 4.67q-16.811 17.745-49.5 20.547H878.255q-66.311 3.736-136.358-15.41t-122.816-49.5-96.198-61.642-65.844-53.702l-23.349-22.415q-9.34-9.34-25.684-28.02t-66.778-84.99-99-141.027-114.41-197.066T5.939 495.332Q.332 480.388.332 470.115t2.802-14.944l3.736-5.603q14.01-17.746 53.236-17.746l255.904-1.868q11.208 1.868 21.482 6.071t14.943 7.939l4.67 2.802q14.943 10.273 22.415 29.886 18.679 46.698 42.962 96.665t38.292 76.118l14.943 27.085q27.085 56.037 52.302 97.131t45.297 63.977 38.76 35.957 31.754 13.075 25.217-4.67q1.868-.933 4.67-4.67t11.207-20.546 12.609-43.896 8.872-75.651 0-116.745q-1.868-37.358-8.405-68.179t-13.076-42.962l-5.603-11.208q-23.35-31.754-79.387-40.16-12.141-1.868 4.67-22.415 15.877-17.745 35.49-28.019 49.5-24.283 223.216-22.415 76.585.934 126.085 12.142 18.68 4.67 31.288 12.608t19.146 22.415 9.806 29.887 3.27 42.495-.935 51.368-2.335 65.844-1.4 77.052q0 10.273-.935 39.226t-.467 44.83 3.27 37.825 10.74 36.425 21.014 22.882q7.472 1.868 15.877 3.736t24.283-10.274 35.49-32.222 48.566-62.575 63.51-100.4q56.037-97.132 99.933-210.141 3.736-9.34 9.34-16.345t10.273-9.806l3.736-2.802 4.67-2.335 12.141-2.802 18.68-.467 268.98-1.868q36.424-4.67 59.773 2.335t28.953 15.41l5.604 9.34z"/></svg>